<svg data-v-0dd9719b="" version="1.0" xmlns="http://www.w3.org/2000/svg" xmlns:xlink="http://www.w3.org/1999/xlink" width="100%" height="100%" viewBox="0 0 150.50257108558935 150.50257108558935" preserveAspectRatio="xMidYMid meet" color-interpolation-filters="sRGB" style="margin: auto;"> <rect data-v-0dd9719b="" x="0" y="0" width="100%" height="100%" fill-opacity="0" class="background"></rect> <!----> <g data-v-0dd9719b="" fill="#0a0619" class="icon-text-wrapper icon-svg-group iconsvg" transform="translate(45.25128363544604, 21.50036620075366)"><g class="iconsvg-imagesvg" transform="translate(0,0)" mask="url(#66d3f8c6-7377-4d03-a596-882a74422489)"><g><rect fill="#0a0619" fill-opacity="0" stroke-width="2" x="0" y="0" width="60" height="107.50183648970669" class="image-rect"></rect> <svg filter="url(#colors1725966071)" x="0" y="0" width="60" height="107.50183648970669" filtersec="colorsf9790989358" class="image-svg-svg primary" style="overflow: visible;"><svg xmlns="http://www.w3.org/2000/svg" xmlns:xlink="http://www.w3.org/1999/xlink" version="1.1" x="0px" y="0px" viewBox="24.884000778198242 5 50.23199462890625 89.99999237060547" enable-background="new 0 0 100 100" xml:space="preserve"><path d="M55.232,23.837c5.194,0,9.419-4.226,9.419-9.419S60.427,5,55.232,5c-5.193,0-9.418,4.225-9.418,9.418  S50.039,23.837,55.232,23.837z M55.232,9.186c2.886,0,5.232,2.347,5.232,5.232c0,2.886-2.347,5.233-5.232,5.233  c-2.885,0-5.232-2.347-5.232-5.233C50,11.533,52.348,9.186,55.232,9.186z M67.791,32.209c-4.04,0-7.326,3.286-7.326,7.326  c0,4.039,3.286,7.325,7.326,7.325c4.039,0,7.325-3.286,7.325-7.325C75.116,35.496,71.83,32.209,67.791,32.209z M67.791,42.675  c-1.731,0-3.14-1.408-3.14-3.14s1.408-3.14,3.14-3.14c1.73,0,3.14,1.408,3.14,3.14S69.521,42.675,67.791,42.675z M31.163,34.302  h4.186v6.554c-0.67-0.173-1.369-0.275-2.093-0.275c-4.616,0-8.372,3.756-8.372,8.372c0,4.617,3.756,8.372,8.372,8.372  c0.724,0,1.422-0.102,2.093-0.275v29.578c0,4.623,3.749,8.372,8.372,8.372c4.624,0,8.373-3.749,8.373-8.372V34.302h4.186v-6.279  H31.163V34.302z M39.535,54.473c1.298-1.476,2.093-3.404,2.093-5.52s-0.795-4.044-2.093-5.519v-9.132h8.372v14.651h-4.186v16.744  c-2.311,0-4.186-1.875-4.186-4.186V54.473z M37.442,48.953c0,2.309-1.878,4.187-4.186,4.187c-2.309,0-4.186-1.878-4.186-4.187  c0-2.308,1.877-4.186,4.186-4.186C35.564,44.768,37.442,46.646,37.442,48.953z"></path></svg></svg> <defs><filter id="colors1725966071"><feColorMatrix type="matrix" values="0 0 0 0 0.93359375  0 0 0 0 0.35546875  0 0 0 0 0.140625  0 0 0 1 0" class="icon-fecolormatrix"></feColorMatrix></filter> <filter id="colorsf9790989358"><feColorMatrix type="matrix" values="0 0 0 0 0.99609375  0 0 0 0 0.99609375  0 0 0 0 0.99609375  0 0 0 1 0" class="icon-fecolormatrix"></feColorMatrix></filter> <filter id="colorsb3556239071"><feColorMatrix type="matrix" values="0 0 0 0 0  0 0 0 0 0  0 0 0 0 0  0 0 0 1 0" class="icon-fecolormatrix"></feColorMatrix></filter></defs></g><rect v-gra="id" width="72.00000381469727" height="119.50183868408203" transform="translate(-6, -6)" style="pointer-events:none;" fill="url(#RCM6ymyVPfN4-oBX4pRE_)"></rect></g> <g transform="translate(30.000001907348633,114.50183868408203)"><g data-gra="path-name" fill-rule="" class="tp-name iconsvg-namesvg"><g transform="scale(1)"><g><path d="" transform="translate(0, 0)"></path></g> <!----> <!----> <!----> <!----> <!----> <!----> <!----></g></g> <!----></g></g><defs v-gra="od"></defs><defs v-gra="id"><filter id="7955f89a-ceca-472a-912f-924bb1f6a392" filterUnits="userSpaceOnUse"><feColorMatrix type="matrix" values="0 0 0 0 0.99609375  0 0 0 0 0.99609375  0 0 0 0 0.99609375  0 0 0 1 0"></feColorMatrix></filter><linearGradient x1="0" y1="1" x2="0" y2="0" id="RCM6ymyVPfN4-oBX4pRE_"><stop offset="0%" stop-color="#fd9248"></stop><stop offset="50%" stop-color="#fa1768"></stop><stop offset="100%" stop-color="#f001ff"></stop></linearGradient><filter id="42443b3f1de60f6b6fd3b6a9844b4764" filterUnits="objectBoundingBox"><feColorMatrix type="matrix" values="0 0 0 0 0.99609375  0 0 0 0 0.99609375  0 0 0 0 0.99609375  0 0 0 1 0"></feColorMatrix></filter></defs><mask v-gra="im" id="66d3f8c6-7377-4d03-a596-882a74422489"><g class="iconsvg-imagesvg" filter="url(#7955f89a-ceca-472a-912f-924bb1f6a392)"><g><rect fill="#0a0619" fill-opacity="0" stroke-width="2" x="0" y="0" width="60" height="107.50183648970669" class="image-rect"></rect> <svg x="0" y="0" width="60" height="107.50183648970669" filtersec="colorsf9790989358" class="image-svg-svg primary" style="overflow: visible;"><svg xmlns="http://www.w3.org/2000/svg" xmlns:xlink="http://www.w3.org/1999/xlink" version="1.1" x="0px" y="0px" viewBox="24.884000778198242 5 50.23199462890625 89.99999237060547" enable-background="new 0 0 100 100" xml:space="preserve"><path d="M55.232,23.837c5.194,0,9.419-4.226,9.419-9.419S60.427,5,55.232,5c-5.193,0-9.418,4.225-9.418,9.418  S50.039,23.837,55.232,23.837z M55.232,9.186c2.886,0,5.232,2.347,5.232,5.232c0,2.886-2.347,5.233-5.232,5.233  c-2.885,0-5.232-2.347-5.232-5.233C50,11.533,52.348,9.186,55.232,9.186z M67.791,32.209c-4.04,0-7.326,3.286-7.326,7.326  c0,4.039,3.286,7.325,7.326,7.325c4.039,0,7.325-3.286,7.325-7.325C75.116,35.496,71.83,32.209,67.791,32.209z M67.791,42.675  c-1.731,0-3.14-1.408-3.14-3.14s1.408-3.14,3.14-3.14c1.73,0,3.14,1.408,3.14,3.14S69.521,42.675,67.791,42.675z M31.163,34.302  h4.186v6.554c-0.67-0.173-1.369-0.275-2.093-0.275c-4.616,0-8.372,3.756-8.372,8.372c0,4.617,3.756,8.372,8.372,8.372  c0.724,0,1.422-0.102,2.093-0.275v29.578c0,4.623,3.749,8.372,8.372,8.372c4.624,0,8.373-3.749,8.373-8.372V34.302h4.186v-6.279  H31.163V34.302z M39.535,54.473c1.298-1.476,2.093-3.404,2.093-5.52s-0.795-4.044-2.093-5.519v-9.132h8.372v14.651h-4.186v16.744  c-2.311,0-4.186-1.875-4.186-4.186V54.473z M37.442,48.953c0,2.309-1.878,4.187-4.186,4.187c-2.309,0-4.186-1.878-4.186-4.187  c0-2.308,1.877-4.186,4.186-4.186C35.564,44.768,37.442,46.646,37.442,48.953z"></path></svg></svg> <defs><filter id="colors1725966071"><feColorMatrix type="matrix" values="0 0 0 0 0.93359375  0 0 0 0 0.35546875  0 0 0 0 0.140625  0 0 0 1 0" class="icon-fecolormatrix"></feColorMatrix></filter> <filter id="colorsf9790989358"><feColorMatrix type="matrix" values="0 0 0 0 0.99609375  0 0 0 0 0.99609375  0 0 0 0 0.99609375  0 0 0 1 0" class="icon-fecolormatrix"></feColorMatrix></filter> <filter id="colorsb3556239071"><feColorMatrix type="matrix" values="0 0 0 0 0  0 0 0 0 0  0 0 0 0 0  0 0 0 1 0" class="icon-fecolormatrix"></feColorMatrix></filter></defs></g></g></mask></svg>